<svg width="32" height="32" viewBox="0 0 32 32" fill="none" xmlns="http://www.w3.org/2000/svg">
<path d="M29.295 21.25C29.4933 21.5938 29.5474 22.0022 29.4452 22.3857C29.3431 22.7693 29.0931 23.0967 28.75 23.2963L16.75 30.2963C16.5205 30.4303 16.2595 30.5009 15.9937 30.5009C15.728 30.5009 15.467 30.4303 15.2375 30.2963L3.23747 23.2963C2.89368 23.0959 2.64358 22.7671 2.5422 22.3823C2.44081 21.9975 2.49644 21.5882 2.69684 21.2444C2.89724 20.9006 3.22601 20.6505 3.61081 20.5491C3.99561 20.4477 4.40493 20.5034 4.74872 20.7038L15.9987 27.2638L27.25 20.7038C27.5938 20.5059 28.002 20.4523 28.3853 20.5547C28.7685 20.657 29.0956 20.9071 29.295 21.25ZM27.25 14.7038L16 21.2638L4.75622 14.7038C4.4134 14.5197 4.01248 14.4761 3.63809 14.5821C3.2637 14.688 2.94515 14.9354 2.74967 15.2718C2.5542 15.6082 2.49711 16.0075 2.59046 16.3852C2.68381 16.7629 2.92028 17.0896 3.24997 17.2963L15.25 24.2963C15.4795 24.4303 15.7405 24.5009 16.0062 24.5009C16.272 24.5009 16.533 24.4303 16.7625 24.2963L28.7625 17.2963C29.1063 17.0957 29.3563 16.7668 29.4576 16.3819C29.5588 15.9969 29.503 15.5876 29.3025 15.2438C29.1019 14.9 28.773 14.65 28.3881 14.5487C28.0031 14.4474 27.5938 14.5032 27.25 14.7038ZM2.49997 10C2.50045 9.7372 2.57 9.47911 2.70162 9.25161C2.83325 9.02411 3.02235 8.8352 3.24997 8.70378L15.25 1.70378C15.4797 1.57054 15.7406 1.50037 16.0062 1.50037C16.2718 1.50037 16.5327 1.57054 16.7625 1.70378L28.7625 8.70378C28.9892 8.8358 29.1773 9.02498 29.3081 9.25244C29.4388 9.47989 29.5077 9.73767 29.5077 10C29.5077 10.2624 29.4388 10.5202 29.3081 10.7476C29.1773 10.9751 28.9892 11.1643 28.7625 11.2963L16.7625 18.2963C16.533 18.4303 16.272 18.5009 16.0062 18.5009C15.7405 18.5009 15.4795 18.4303 15.25 18.2963L3.24997 11.2963C3.02235 11.1649 2.83325 10.9759 2.70162 10.7484C2.57 10.521 2.50045 10.2629 2.49997 10ZM6.97747 10L16 15.2638L25.0225 10L16 4.73628L6.97747 10Z" fill="white"/>
</svg>
